<?xml version="1.0" encoding="UTF-8" standalone="no"?>
<svg width="800" height="400" viewBox="0 0 800 400" xmlns="http://www.w3.org/2000/svg">
  <style>
    @keyframes pulse {
      0% { opacity: 0.3; }
      50% { opacity: 0.7; }
      100% { opacity: 0.3; }
    }
    @keyframes flow {
      0% { stroke-dashoffset: 1000; }
      100% { stroke-dashoffset: 0; }
    }
    .circuit-line {
      stroke: #00FF9C;
      stroke-width: 1.5;
      fill: none;
      opacity: 0.5;
    }
    .circuit-line-animated {
      stroke: #00FFFF;
      stroke-width: 2;
      fill: none;
      stroke-dasharray: 10, 5;
      animation: flow 20s linear infinite;
    }
    .node {
      fill: #FF00FF;
      animation: pulse 3s infinite;
    }
    .background {
      fill: #0D1117;
    }
  </style>
  
  <!-- Background -->
  <rect class="background" width="800" height="400" />
  
  <!-- Circuit pattern -->
  <g>
    <!-- Horizontal lines -->
    <path class="circuit-line" d="M 0,50 H 800" />
    <path class="circuit-line" d="M 0,100 H 800" />
    <path class="circuit-line" d="M 0,150 H 800" />
    <path class="circuit-line" d="M 0,200 H 800" />
    <path class="circuit-line" d="M 0,250 H 800" />
    <path class="circuit-line" d="M 0,300 H 800" />
    <path class="circuit-line" d="M 0,350 H 800" />
    
    <!-- Vertical lines -->
    <path class="circuit-line" d="M 50,0 V 400" />
    <path class="circuit-line" d="M 150,0 V 400" />
    <path class="circuit-line" d="M 250,0 V 400" />
    <path class="circuit-line" d="M 350,0 V 400" />
    <path class="circuit-line" d="M 450,0 V 400" />
    <path class="circuit-line" d="M 550,0 V 400" />
    <path class="circuit-line" d="M 650,0 V 400" />
    <path class="circuit-line" d="M 750,0 V 400" />
  </g>
  
  <!-- Circuit nodes -->
  <circle class="node" cx="50" cy="50" r="4" />
  <circle class="node" cx="150" cy="50" r="4" />
  <circle class="node" cx="250" cy="50" r="4" />
  <circle class="node" cx="350" cy="50" r="4" />
  <circle class="node" cx="450" cy="50" r="4" />
  <circle class="node" cx="550" cy="50" r="4" />
  <circle class="node" cx="650" cy="50" r="4" />
  <circle class="node" cx="750" cy="50" r="4" />
  
  <circle class="node" cx="50" cy="150" r="4" />
  <circle class="node" cx="150" cy="150" r="4" />
  <circle class="node" cx="250" cy="150" r="4" />
  <circle class="node" cx="350" cy="150" r="4" />
  <circle class="node" cx="450" cy="150" r="4" />
  <circle class="node" cx="550" cy="150" r="4" />
  <circle class="node" cx="650" cy="150" r="4" />
  <circle class="node" cx="750" cy="150" r="4" />
  
  <circle class="node" cx="50" cy="250" r="4" />
  <circle class="node" cx="150" cy="250" r="4" />
  <circle class="node" cx="250" cy="250" r="4" />
  <circle class="node" cx="350" cy="250" r="4" />
  <circle class="node" cx="450" cy="250" r="4" />
  <circle class="node" cx="550" cy="250" r="4" />
  <circle class="node" cx="650" cy="250" r="4" />
  <circle class="node" cx="750" cy="250" r="4" />
  
  <circle class="node" cx="50" cy="350" r="4" />
  <circle class="node" cx="150" cy="350" r="4" />
  <circle class="node" cx="250" cy="350" r="4" />
  <circle class="node" cx="350" cy="350" r="4" />
  <circle class="node" cx="450" cy="350" r="4" />
  <circle class="node" cx="550" cy="350" r="4" />
  <circle class="node" cx="650" cy="350" r="4" />
  <circle class="node" cx="750" cy="350" r="4" />
  
  <!-- Animated circuit paths -->
  <path class="circuit-line-animated" d="M 50,50 H 250 V 150 H 450 V 250 H 650 V 350" />
  <path class="circuit-line-animated" d="M 750,50 H 550 V 150 H 350 V 250 H 150 V 350" />
  <path class="circuit-line-animated" d="M 50,150 H 150 V 250 H 350 V 350 H 750" />
  <path class="circuit-line-animated" d="M 750,150 H 650 V 250 H 450 V 350 H 50" />
</svg>